<svg xmlns="http://www.w3.org/2000/svg" viewBox="0 0 512 512">
  <defs>
    <linearGradient id="bg" x1="0" y1="0" x2="1" y2="1">
      <stop offset="0%" stop-color="#1e1e1e"/>
      <stop offset="100%" stop-color="#0d1117"/>
    </linearGradient>
    <linearGradient id="hex" x1="0" y1="0" x2="1" y2="1">
      <stop offset="0%" stop-color="#569cd6"/>
      <stop offset="100%" stop-color="#4ec9b0"/>
    </linearGradient>
  </defs>

  <rect width="512" height="512" rx="96" fill="url(#bg)"/>
  <rect width="500" height="500" x="6" y="6" rx="93" fill="none" stroke="#252526" stroke-width="3"/>

  <g transform="translate(256,180)">
    <polygon points="0,-100 86,-50 86,50 0,100 -86,50 -86,-50" fill="none" stroke="url(#hex)" stroke-width="8" stroke-linejoin="round"/>
    <polygon points="0,-80 69,-40 69,40 0,80 -69,40 -69,-40" fill="none" stroke="url(#hex)" stroke-width="2" stroke-linejoin="round" opacity="0.3"/>

    <circle cx="0" cy="0" r="32" fill="none" stroke="#4ec9b0" stroke-width="5"/>
    <circle cx="0" cy="0" r="10" fill="#4ec9b0"/>

    <text x="0" y="-14" font-family="monospace" font-size="18" fill="#4ec9b0" text-anchor="middle" font-weight="bold">&gt;_</text>
  </g>

  <text x="256" y="330" font-family="Arial, sans-serif" font-size="64" font-weight="900" fill="#d4d4d4" text-anchor="middle" letter-spacing="8">SYSNUX</text>

  <text x="256" y="370" font-family="Arial, sans-serif" font-size="18" font-weight="normal" fill="#6e6e6e" text-anchor="middle" letter-spacing="4">PÓS-FORMATAÇÃO PROFISSIONAL</text>

  <circle cx="86" cy="140" r="4" fill="#569cd6" opacity="0.6"/>
  <circle cx="426" cy="140" r="4" fill="#569cd6" opacity="0.6"/>
  <circle cx="86" cy="372" r="4" fill="#4ec9b0" opacity="0.6"/>
  <circle cx="426" cy="372" r="4" fill="#4ec9b0" opacity="0.6"/>
</svg>
